<?xml version="1.0" encoding="UTF-8"?><svg id="Layer_1" xmlns="http://www.w3.org/2000/svg" xmlns:xlink="http://www.w3.org/1999/xlink" viewBox="0 0 404.37 124.95"><defs><style>.cls-1{letter-spacing:0em;}.cls-2{letter-spacing:-.01em;}.cls-3{fill:#6d6e71;font-size:23.64px;}.cls-3,.cls-4,.cls-5{font-family:Roboto-Bold, Roboto;font-weight:700;}.cls-6{letter-spacing:0em;}.cls-7{letter-spacing:-.03em;}.cls-8{letter-spacing:0em;}.cls-4{fill:#27236a;}.cls-4,.cls-5{font-size:92.11px;}.cls-5{fill:#55164b;}.cls-9{fill:url(#linear-gradient);}</style><linearGradient id="linear-gradient" x1="0" y1="60.68" x2="57.26" y2="60.68" gradientUnits="userSpaceOnUse"><stop offset="0" stop-color="#27236a"/><stop offset="0" stop-color="#27236a"/><stop offset=".29" stop-color="#27236a"/><stop offset=".74" stop-color="#55164b"/><stop offset="1" stop-color="#55164b"/></linearGradient></defs><text class="cls-5" transform="translate(261.21 85.7) scale(.77 1)"><tspan class="cls-7" x="0" y="0">T</tspan><tspan class="cls-2" x="54.06" y="0">r</tspan><tspan x="86.31" y="0">ak</tspan></text><text class="cls-4" transform="translate(69.88 86.62) scale(.77 1)"><tspan class="cls-6" x="0" y="0">L</tspan><tspan x="49.25" y="0">unch</tspan></text><text class="cls-3" transform="translate(73 118.55) scale(.77 1)"><tspan x="0" y="0">No mo</tspan><tspan class="cls-8" x="69.78" y="0">r</tspan><tspan x="78.19" y="0">e waiting for </tspan><tspan class="cls-1" x="216.41" y="0">y</tspan><tspan x="228.1" y="0">our food</tspan></text><path class="cls-9" d="m54.21,0L.23,65.44c-.5.6-.12,1.51.65,1.6l24.4,2.64c.67.07,1.07.78.78,1.39L2.57,121.36,57.03,55.96c.5-.6.13-1.51-.64-1.6l-23.79-2.76c-.66-.08-1.05-.77-.78-1.37L54.21,0Z"/></svg>